<svg width="38" height="38" viewBox="0 0 38 38" fill="none" xmlns="http://www.w3.org/2000/svg">
<path d="M19 38C29.4934 38 38 29.4934 38 19C38 8.50659 29.4934 0 19 0C8.50659 0 0 8.50659 0 19C0 29.4934 8.50659 38 19 38Z" fill="#3D4D87"/>
<path d="M28.5 22.9282C26.4504 22.9282 24.4958 22.4818 22.6931 21.6006C22.4105 21.4653 22.0828 21.4439 21.7835 21.546C21.4843 21.6505 21.2396 21.869 21.1019 22.1516L20.2469 23.921C17.6819 22.4485 15.5539 20.3181 14.079 17.7531L15.8507 16.8981C16.1357 16.7604 16.3519 16.5157 16.4564 16.2165C16.5585 15.9172 16.5395 15.5895 16.4018 15.3069C15.5183 13.5066 15.0718 11.552 15.0718 9.5C15.0718 8.8445 14.5398 8.3125 13.8843 8.3125H9.5C8.8445 8.3125 8.3125 8.8445 8.3125 9.5C8.3125 20.6316 17.3684 29.6875 28.5 29.6875C29.1555 29.6875 29.6875 29.1555 29.6875 28.5V24.1157C29.6875 23.4603 29.1555 22.9282 28.5 22.9282Z" fill="white"/>
</svg>
