<svg width="50" height="53" viewBox="0 0 50 53" fill="none" xmlns="http://www.w3.org/2000/svg">
<path d="M0 14.3202C0 6.85685 5.89099 0.806641 13.1579 0.806641H36.8421C44.109 0.806641 50 6.85685 50 14.3202V38.6445C50 46.1078 44.109 52.158 36.8421 52.158H13.1579C5.89099 52.158 0 46.1078 0 38.6445V14.3202Z" fill="#25346A" fill-opacity="0.7"/>
<path d="M22.1178 31.5237L21.5737 39.3841C22.3522 39.3841 22.6894 39.0406 23.0937 38.6282L26.7437 35.0457L34.3067 40.734C35.6938 41.5279 36.671 41.1099 37.0452 39.4235L42.0096 15.5327L42.0109 15.5313C42.4509 13.4255 41.2694 12.602 39.918 13.1186L10.7376 24.5924C8.74613 25.3863 8.77629 26.5265 10.3991 27.0431L17.8593 29.4263L35.188 18.2903C36.0035 17.7357 36.745 18.0426 36.1351 18.5972L22.1178 31.5237Z" fill="white"/>
</svg>
