<svg width="38" height="38" viewBox="0 0 38 38" fill="none" xmlns="http://www.w3.org/2000/svg">
<path d="M19 38C29.4934 38 38 29.4934 38 19C38 8.50659 29.4934 0 19 0C8.50659 0 0 8.50659 0 19C0 29.4934 8.50659 38 19 38Z" fill="#3D4D87"/>
<path d="M8.6923 18.5882L27.0115 11.5249C27.8617 11.2178 28.6043 11.7323 28.3288 13.018L28.3304 13.0164L25.2112 27.7113C24.9801 28.7532 24.361 29.0065 23.4949 28.5157L18.7449 25.0149L16.4538 27.2221C16.2005 27.4754 15.9867 27.6892 15.4959 27.6892L15.8331 22.8553L24.6365 14.9022C25.0196 14.5649 24.551 14.3749 24.0459 14.7106L13.1668 21.5601L8.47697 20.0971C7.45889 19.7741 7.43672 19.079 8.6923 18.5882Z" fill="white"/>
</svg>
