<svg width="50" height="52" viewBox="0 0 50 52" fill="none" xmlns="http://www.w3.org/2000/svg">
<path d="M0 14.1248C0 6.66153 6.05021 0.611328 13.5135 0.611328H36.4865C43.9498 0.611328 50 6.66153 50 14.1248V38.4492C50 45.9125 43.9498 51.9627 36.4865 51.9627H13.5135C6.05021 51.9627 0 45.9125 0 38.4492V14.1248Z" fill="#25346A" fill-opacity="0.7"/>
<path d="M39.0456 27.6857C38.3902 26.858 38.5777 26.4897 39.0456 25.7498C39.0541 25.7414 44.4645 18.265 45.022 15.7296L45.0253 15.7279C45.3024 14.8039 45.0253 14.1248 43.6858 14.1248H39.2534C38.125 14.1248 37.6047 14.7076 37.326 15.3596C37.326 15.3596 35.0693 20.7617 31.8767 24.2634C30.8463 25.2752 30.3699 25.5995 29.8074 25.5995C29.5304 25.5995 29.0997 25.2752 29.0997 24.3512V15.7279C29.0997 14.6198 28.7838 14.1248 27.8497 14.1248H20.8801C20.1723 14.1248 19.7517 14.6417 19.7517 15.1232C19.7517 16.1738 21.348 16.4154 21.5135 19.3715V25.7853C21.5135 27.1907 21.2584 27.4492 20.6926 27.4492C19.1858 27.4492 15.5287 22.0252 13.3615 15.8174C12.924 14.613 12.4966 14.1265 11.3598 14.1265H6.92568C5.66047 14.1265 5.40541 14.7093 5.40541 15.3613C5.40541 16.5134 6.91216 22.2414 12.4122 29.809C16.0777 34.9745 21.2399 37.7735 25.9358 37.7735C28.7584 37.7735 29.103 37.1519 29.103 36.0826C29.103 31.1468 28.848 30.6806 30.2618 30.6806C30.9172 30.6806 32.0456 31.0049 34.6807 33.4965C37.6926 36.4509 38.1875 37.7735 39.8733 37.7735H44.3057C45.5693 37.7735 46.2095 37.1519 45.8412 35.9255C44.9983 33.3461 39.3024 28.0404 39.0456 27.6857Z" fill="white"/>
</svg>
