<svg width="38" height="38" viewBox="0 0 38 38" fill="none" xmlns="http://www.w3.org/2000/svg">
<path d="M19.0047 0H18.9953C8.51913 0 0 8.5215 0 19C0 23.1562 1.3395 27.0085 3.61713 30.1364L1.24925 37.1949L8.55237 34.8603C11.5568 36.8505 15.1406 38 19.0047 38C29.4809 38 38 29.4761 38 19C38 8.52388 29.4809 0 19.0047 0Z" fill="#3D4D87"/>
<path d="M30.0603 26.8307C29.6019 28.1251 27.7827 29.1986 26.3316 29.5121C25.3388 29.7234 24.0421 29.8921 19.6768 28.0823C14.0932 25.7691 10.4974 20.0952 10.2172 19.7271C9.94881 19.3589 7.96094 16.7227 7.96094 13.9962C7.96094 11.2697 9.34556 9.94205 9.90369 9.37206C10.3621 8.90418 11.1197 8.69043 11.8464 8.69043C12.0816 8.69043 12.2929 8.7023 12.4829 8.7118C13.0411 8.73555 13.3213 8.76881 13.6894 9.64993C14.1478 10.7543 15.2641 13.4808 15.3971 13.7611C15.5324 14.0413 15.6678 14.4213 15.4778 14.7894C15.2997 15.1694 15.1429 15.3381 14.8627 15.6611C14.5824 15.9841 14.3164 16.2311 14.0362 16.5778C13.7797 16.8794 13.4899 17.2024 13.8129 17.7606C14.1359 18.3068 15.2522 20.1284 16.8957 21.5914C19.0166 23.4796 20.7361 24.0828 21.3512 24.3393C21.8096 24.5293 22.3558 24.4842 22.6907 24.1279C23.1158 23.6696 23.6407 22.9096 24.1751 22.1614C24.5551 21.6247 25.0348 21.5582 25.5383 21.7482C26.0513 21.9263 28.7659 23.2682 29.3241 23.5461C29.8822 23.8263 30.2503 23.9593 30.3857 24.1944C30.5187 24.4296 30.5187 25.5339 30.0603 26.8307Z" fill="white"/>
</svg>
