<svg width="50" height="50" viewBox="0 0 50 50" fill="none" xmlns="http://www.w3.org/2000/svg">
<path d="M0 13.1579C0 5.89099 5.89099 0 13.1579 0H36.8421C44.109 0 50 5.89099 50 13.1579V36.8421C50 44.109 44.109 50 36.8421 50H13.1579C5.89099 50 0 44.109 0 36.8421V13.1579Z" fill="#3D4D87"/>
<path d="M36.0395 12.7717C33.279 9.98364 29.6132 8.27385 25.7031 7.95067C21.793 7.6275 17.8961 8.71222 14.7154 11.0092C11.5346 13.3061 9.2794 16.6641 8.35647 20.4775C7.43353 24.2908 7.90366 28.3084 9.68204 31.8056L7.93634 40.2809C7.91822 40.3652 7.91771 40.4524 7.93483 40.537C7.95195 40.6215 7.98633 40.7017 8.03583 40.7723C8.10834 40.8796 8.21185 40.9621 8.33253 41.009C8.45321 41.0559 8.58531 41.0648 8.7112 41.0346L17.0176 39.0658C20.505 40.7992 24.4943 41.2391 28.2755 40.3072C32.0568 39.3754 35.3849 37.1322 37.6675 33.9769C39.9501 30.8216 41.0393 26.9588 40.7412 23.0758C40.4431 19.1928 38.777 15.5416 36.0395 12.7717ZM33.4496 33.4428C31.5396 35.3474 29.0802 36.6046 26.4178 37.0373C23.7554 37.4701 21.0244 37.0564 18.6096 35.8548L17.4518 35.2819L12.3594 36.4879L12.3745 36.4246L13.4297 31.2991L12.8629 30.1805C11.629 27.7572 11.1938 25.0056 11.6195 22.3198C12.0452 19.634 13.31 17.1519 15.2327 15.2289C17.6487 12.8137 20.925 11.4569 24.3412 11.4569C27.7573 11.4569 31.0336 12.8137 33.4496 15.2289C33.4702 15.2525 33.4923 15.2747 33.5159 15.2952C35.9019 17.7167 37.2339 20.9832 37.2215 24.3827C37.2091 27.7821 35.8532 31.0388 33.4496 33.4428Z" fill="white"/>
<path d="M32.9972 29.683C32.3731 30.6659 31.3872 31.8689 30.148 32.1674C27.9772 32.692 24.6455 32.1854 20.4999 28.3202L20.4486 28.2749C16.8034 24.8951 15.8567 22.0821 16.0858 19.8509C16.2125 18.5846 17.2677 17.4389 18.1572 16.6912C18.2978 16.5711 18.4645 16.4857 18.6441 16.4417C18.8236 16.3976 19.011 16.3962 19.1912 16.4375C19.3714 16.4788 19.5394 16.5617 19.6818 16.6796C19.8243 16.7974 19.9371 16.947 20.0114 17.1163L21.3531 20.1313C21.4403 20.3268 21.4726 20.5424 21.4466 20.7548C21.4206 20.9673 21.3372 21.1687 21.2054 21.3373L20.527 22.2177C20.3814 22.3995 20.2936 22.6207 20.2748 22.8528C20.256 23.0849 20.3071 23.3174 20.4215 23.5202C20.8014 24.1865 21.7119 25.1664 22.7219 26.074C23.8556 27.0991 25.1129 28.0368 25.9088 28.3563C26.1218 28.4434 26.356 28.4646 26.5812 28.4173C26.8063 28.37 27.0122 28.2564 27.1721 28.091L27.9591 27.2981C28.1109 27.1483 28.2997 27.0416 28.5063 26.9886C28.7129 26.9356 28.9298 26.9384 29.1349 26.9966L32.3218 27.9011C32.4976 27.955 32.6588 28.0484 32.7929 28.1742C32.9271 28.2999 33.0307 28.4547 33.0959 28.6266C33.161 28.7986 33.186 28.9831 33.1689 29.1662C33.1518 29.3493 33.0931 29.5261 32.9972 29.683Z" fill="white"/>
</svg>
